<svg width="48" height="42" viewBox="0 0 48 42" fill="none" xmlns="http://www.w3.org/2000/svg">
<path d="M5.2661 30.5808C4.9677 29.8616 4.59622 29.1466 4.48754 28.3707C3.0561 18.366 11.2187 10.2545 18.6273 7.17359C26.0359 4.09271 34.5661 8.99351 39.6234 3.73283C40.8869 2.30615 42.1729 0.955108 44.0939 0.945068C44.8946 0.984788 45.5614 1.36111 45.9022 2.02503C52.2235 14.9725 43.1921 30.3247 32.9931 35.7796C26.5206 38.9788 19.8231 39.6827 13.554 37.5125C11.8107 37.099 10.4134 35.2758 8.60638 35.2521C7.36022 35.9513 6.32522 38.2295 5.47958 39.484C4.49458 41.1935 2.53326 41.6455 1.1221 40.1496C-2.99386 36.0934 5.55982 32.4933 5.2661 30.5808ZM10.7663 28.9232C11.6503 29.6374 12.9255 29.4349 13.6043 28.7223C19.032 22.146 26.3814 19.2609 34.3744 19.48C35.5522 19.5483 36.4083 18.5945 36.484 17.5713C36.5077 16.356 35.5725 15.5342 34.525 15.4616C24.8645 14.9246 16.4833 19.1842 10.5653 26.0601C9.81578 26.9961 9.95186 28.2415 10.7663 28.9232Z" fill="black"/>
</svg>
